<svg width="184" height="32" viewBox="0 0 184 32" fill="none" xmlns="http://www.w3.org/2000/svg">
<g id="Happy Tails">
<path d="M0.259766 24.3211V1.51158H1.90851V11.9863H16.4444V1.51158H18.0931V24.3211H16.4444V13.3895H1.90851V24.3211H0.259766Z" fill="#161616"/>
<path d="M31.0925 24.7453C29.3428 24.7453 27.8399 24.3646 26.5837 23.6032C25.3275 22.82 24.3629 21.7649 23.69 20.4379C23.0394 19.1109 22.7142 17.6207 22.7142 15.9674C22.7142 14.3358 23.0619 12.8674 23.7573 11.5621C24.4751 10.2351 25.4957 9.19088 26.8192 8.42947C28.1427 7.66807 29.7241 7.28737 31.5635 7.28737C33.2908 7.28737 34.7937 7.66807 36.0724 8.42947C37.351 9.16912 38.338 10.1807 39.0334 11.4642C39.7512 12.726 40.1101 14.1618 40.1101 15.7716V24.3211H38.5286V20.3074H38.4277C38.1137 20.9818 37.6202 21.667 36.9472 22.3632C36.2967 23.0375 35.4779 23.6032 34.4909 24.06C33.5263 24.5168 32.3935 24.7453 31.0925 24.7453ZM31.3617 23.4074C32.73 23.4074 33.9525 23.0919 35.0293 22.4611C36.106 21.8084 36.9472 20.9165 37.5529 19.7853C38.181 18.6323 38.495 17.3379 38.495 15.9021C38.495 14.5098 38.2034 13.2698 37.6202 12.1821C37.0594 11.0726 36.2518 10.2025 35.1975 9.57158C34.1432 8.9407 32.9095 8.62526 31.4963 8.62526C30.0157 8.62526 28.7371 8.95158 27.6604 9.60421C26.6061 10.2568 25.7873 11.1488 25.2041 12.28C24.6433 13.4112 24.3629 14.6947 24.3629 16.1305C24.3629 17.4575 24.6321 18.6758 25.1705 19.7853C25.7088 20.8947 26.5052 21.7758 27.5595 22.4284C28.6138 23.0811 29.8812 23.4074 31.3617 23.4074Z" fill="#161616"/>
<path d="M54.0847 7.25474C55.2063 7.25474 56.283 7.45053 57.3149 7.84211C58.3468 8.21193 59.2665 8.76667 60.074 9.50631C60.8816 10.246 61.5209 11.1705 61.992 12.28C62.463 13.3677 62.6986 14.6295 62.6986 16.0653C62.6986 17.8709 62.306 19.4263 61.5209 20.7316C60.7358 22.0151 59.7039 23.0049 58.4253 23.7011C57.1467 24.3754 55.7559 24.7126 54.253 24.7126C53.2435 24.7126 52.2677 24.5277 51.3256 24.1579C50.4059 23.7881 49.5871 23.2768 48.8693 22.6242C48.1739 21.9716 47.6243 21.2428 47.2206 20.4379H47.1196V31.5H45.5382V15.8695C45.5382 13.9768 45.9419 12.3996 46.7495 11.1379C47.557 9.85439 48.6113 8.88632 49.9124 8.23368C51.2134 7.58105 52.6042 7.25474 54.0847 7.25474ZM54.0511 8.62526C52.8622 8.62526 51.7406 8.90807 50.6863 9.47368C49.632 10.0175 48.7796 10.8333 48.1291 11.9211C47.4785 13.0088 47.1533 14.3467 47.1533 15.9347C47.1533 17.5446 47.4785 18.9042 48.1291 20.0137C48.802 21.1014 49.6656 21.9281 50.7199 22.4937C51.7967 23.0593 52.9295 23.3421 54.1184 23.3421C55.3297 23.3421 56.4625 23.0484 57.5168 22.4611C58.5711 21.8737 59.4235 21.0361 60.074 19.9484C60.747 18.8389 61.0835 17.5228 61.0835 16C61.0835 14.4119 60.747 13.074 60.074 11.9863C59.4011 10.8768 58.5262 10.0393 57.4495 9.47368C56.3952 8.90807 55.2624 8.62526 54.0511 8.62526Z" fill="#161616"/>
<path d="M75.7718 7.25474C76.8934 7.25474 77.9701 7.45053 79.002 7.84211C80.0339 8.21193 80.9536 8.76667 81.7611 9.50631C82.5687 10.246 83.208 11.1705 83.679 12.28C84.1501 13.3677 84.3856 14.6295 84.3856 16.0653C84.3856 17.8709 83.9931 19.4263 83.208 20.7316C82.4229 22.0151 81.391 23.0049 80.1124 23.7011C78.8337 24.3754 77.443 24.7126 75.94 24.7126C74.9306 24.7126 73.9548 24.5277 73.0127 24.1579C72.093 23.7881 71.2742 23.2768 70.5564 22.6242C69.861 21.9716 69.3114 21.2428 68.9076 20.4379H68.8067V31.5H67.2252V15.8695C67.2252 13.9768 67.629 12.3996 68.4366 11.1379C69.2441 9.85439 70.2984 8.88632 71.5995 8.23368C72.9005 7.58105 74.2913 7.25474 75.7718 7.25474ZM75.7381 8.62526C74.5493 8.62526 73.4277 8.90807 72.3734 9.47368C71.3191 10.0175 70.4667 10.8333 69.8161 11.9211C69.1656 13.0088 68.8403 14.3467 68.8403 15.9347C68.8403 17.5446 69.1656 18.9042 69.8161 20.0137C70.4891 21.1014 71.3527 21.9281 72.407 22.4937C73.4837 23.0593 74.6165 23.3421 75.8054 23.3421C77.0168 23.3421 78.1496 23.0484 79.2039 22.4611C80.2582 21.8737 81.1106 21.0361 81.7611 19.9484C82.4341 18.8389 82.7705 17.5228 82.7705 16C82.7705 14.4119 82.4341 13.074 81.7611 11.9863C81.0882 10.8768 80.2133 10.0393 79.1366 9.47368C78.0823 8.90807 76.9495 8.62526 75.7381 8.62526Z" fill="#161616"/>
<path d="M95.8101 30.9453V24.68C94.5988 24.593 93.466 24.2558 92.4117 23.6684C91.3798 23.0593 90.5386 22.2326 89.8881 21.1884C89.26 20.1225 88.946 18.8607 88.946 17.4032V7.67895H90.5611V17.3053C90.5611 18.6105 90.8527 19.72 91.4359 20.6337C92.0191 21.5474 92.7706 22.2326 93.6903 22.6895C94.61 23.1463 95.5746 23.3747 96.584 23.3747C97.6383 23.3747 98.6253 23.1463 99.545 22.6895C100.487 22.2109 101.25 21.5256 101.833 20.6337C102.439 19.72 102.742 18.6105 102.742 17.3053V7.67895H104.289V17.4032C104.289 18.8825 103.975 20.1551 103.347 21.2211C102.719 22.2653 101.878 23.0811 100.824 23.6684C99.7693 24.234 98.6366 24.5712 97.4252 24.68V30.9453H95.8101Z" fill="#161616"/>
<path d="M128.187 24.3211C127.043 24.3211 126.056 24.1035 125.226 23.6684C124.419 23.2116 123.802 22.5807 123.376 21.7758C122.95 20.9491 122.737 20.0028 122.737 18.9368V2.91474H114.964V1.47895H132.158V2.91474H124.385V19.1653C124.385 20.2747 124.722 21.1775 125.395 21.8737C126.068 22.5481 127.01 22.8853 128.221 22.8853H129.634V24.3211H128.187Z" fill="#161616"/>
<path d="M141.762 24.7453C140.013 24.7453 138.51 24.3646 137.253 23.6032C135.997 22.82 135.033 21.7649 134.36 20.4379C133.709 19.1109 133.384 17.6207 133.384 15.9674C133.384 14.3358 133.732 12.8674 134.427 11.5621C135.145 10.2351 136.166 9.19088 137.489 8.42947C138.812 7.66807 140.394 7.28737 142.233 7.28737C143.961 7.28737 145.464 7.66807 146.742 8.42947C148.021 9.16912 149.008 10.1807 149.703 11.4642C150.421 12.726 150.78 14.1618 150.78 15.7716V24.3211H149.198V20.3074H149.098C148.783 20.9818 148.29 21.667 147.617 22.3632C146.966 23.0375 146.148 23.6032 145.161 24.06C144.196 24.5168 143.063 24.7453 141.762 24.7453ZM142.031 23.4074C143.4 23.4074 144.622 23.0919 145.699 22.4611C146.776 21.8084 147.617 20.9165 148.223 19.7853C148.851 18.6323 149.165 17.3379 149.165 15.9021C149.165 14.5098 148.873 13.2698 148.29 12.1821C147.729 11.0726 146.922 10.2025 145.867 9.57158C144.813 8.9407 143.579 8.62526 142.166 8.62526C140.686 8.62526 139.407 8.95158 138.33 9.60421C137.276 10.2568 136.457 11.1488 135.874 12.28C135.313 13.4112 135.033 14.6947 135.033 16.1305C135.033 17.4575 135.302 18.6758 135.84 19.7853C136.379 20.8947 137.175 21.7758 138.229 22.4284C139.284 23.0811 140.551 23.4074 142.031 23.4074Z" fill="#161616"/>
<path d="M156.242 24.3211V7.67895H157.857V24.3211H156.242ZM157.083 4.35053C156.746 4.35053 156.444 4.23088 156.174 3.99158C155.928 3.73053 155.804 3.43684 155.804 3.11053C155.804 2.76246 155.928 2.46877 156.174 2.22947C156.444 1.99017 156.746 1.87053 157.083 1.87053C157.419 1.87053 157.711 1.99017 157.958 2.22947C158.227 2.46877 158.361 2.76246 158.361 3.11053C158.361 3.43684 158.227 3.73053 157.958 3.99158C157.711 4.23088 157.419 4.35053 157.083 4.35053Z" fill="#161616"/>
<path d="M163.273 24.3211V0.5H164.855V24.3211H163.273Z" fill="#161616"/>
<path d="M169.767 24.3211V22.9505H177.775C178.605 22.9505 179.301 22.7874 179.861 22.4611C180.422 22.113 180.848 21.667 181.14 21.1232C181.432 20.5793 181.577 20.0137 181.577 19.4263C181.577 18.9042 181.454 18.4039 181.207 17.9253C180.961 17.4467 180.579 17.0551 180.063 16.7505C179.57 16.446 178.93 16.2937 178.145 16.2937H174.444C173.345 16.2937 172.414 16.1088 171.651 15.7389C170.889 15.3691 170.317 14.8688 169.935 14.2379C169.554 13.5853 169.363 12.8674 169.363 12.0842C169.363 11.3228 169.543 10.6049 169.902 9.93053C170.283 9.25614 170.833 8.71228 171.55 8.29895C172.268 7.88561 173.121 7.67895 174.108 7.67895H181.813V9.04947H174.276C173.222 9.04947 172.414 9.35403 171.853 9.96316C171.292 10.5723 171.012 11.2575 171.012 12.0189C171.012 12.7586 171.292 13.4221 171.853 14.0095C172.436 14.5751 173.322 14.8579 174.511 14.8579H177.91C179.121 14.8579 180.119 15.0646 180.904 15.4779C181.69 15.8695 182.273 16.4025 182.654 17.0768C183.058 17.7512 183.26 18.5126 183.26 19.3611C183.26 20.1877 183.047 20.9818 182.62 21.7432C182.194 22.4828 181.6 23.1028 180.837 23.6032C180.097 24.0818 179.2 24.3211 178.145 24.3211H169.767Z" fill="#161616"/>
</g>
</svg>
