<svg width="43" height="42" viewBox="0 0 43 42" fill="none" xmlns="http://www.w3.org/2000/svg">
<g id="Group 49">
<g id="Vector">
<path d="M33.1759 12.236C33.2329 11.6641 32.6355 11.2574 32.0944 11.4779C31.3472 11.7824 30.3127 12.1783 29.1838 12.5346C29.1838 12.5346 29.4417 14.3281 30.1514 15.1739C30.8422 15.9972 33 16.5003 33 16.5003C33.347 14.7903 33.071 13.2889 33.1759 12.236Z" fill="#F39324"/>
<path d="M16.4654 12.938C16.4654 12.938 17.1897 18.7252 17.2421 21.8546C17.2946 24.984 15.6803 28.4522 12.6484 27.5981L7.17969 34.625C13.5581 41.1442 24.2456 42.9124 32.0928 37.7749C32.3055 37.6357 32.3314 37.3355 32.1496 37.1578L25.6631 30.8172C24.8539 30.0283 24.9078 28.7226 25.7415 27.9586C27.2437 26.5822 29.4319 24.3993 30.5629 22.4299C31.4932 20.81 32.5885 18.5281 33 16.5003C33 16.5003 30.8422 15.9972 30.1514 15.1739C29.4417 14.3281 29.1838 12.5346 29.1838 12.5346C27.7599 12.984 26.3362 12.878 25 12.938C22.8903 13.0329 19.6945 12.2858 18.5 12.0003C18.2861 11.9492 17.9796 12.0173 17.6973 12.0986C17.3968 12.1852 17.1214 12.3451 16.8894 12.5548L16.4654 12.938Z" fill="#F39324"/>
<path d="M17.2421 21.8546C17.1897 18.7252 16.4654 12.938 16.4654 12.938C16.4654 12.938 9.44628 15.9136 8.79416 19.8392C8.30339 22.7935 9.71483 26.7717 12.6484 27.5981C15.6803 28.4522 17.2946 24.984 17.2421 21.8546Z" fill="#161616"/>
<path d="M16.4654 12.938C16.4654 12.938 17.1897 18.7252 17.2421 21.8546C17.2946 24.984 15.6803 28.4522 12.6484 27.5981M16.4654 12.938C16.4654 12.938 9.44628 15.9136 8.79416 19.8392C8.30339 22.7935 9.71483 26.7717 12.6484 27.5981M16.4654 12.938L16.8894 12.5548C17.1214 12.3451 17.3968 12.1852 17.6973 12.0986C17.9796 12.0173 18.2861 11.9492 18.5 12.0003C19.6945 12.2858 22.8903 13.0329 25 12.938C26.3362 12.878 27.7599 12.984 29.1838 12.5346M12.6484 27.5981L7.17969 34.625C13.5581 41.1442 24.2456 42.9124 32.0928 37.7749C32.3055 37.6357 32.3314 37.3355 32.1496 37.1578L25.6631 30.8172C24.8539 30.0283 24.9078 28.7226 25.7415 27.9586C27.2437 26.5822 29.4319 24.3993 30.5629 22.4299C31.4932 20.81 32.5885 18.5281 33 16.5003M29.1838 12.5346C30.3127 12.1783 31.3472 11.7824 32.0944 11.4779C32.6355 11.2574 33.2329 11.6641 33.1759 12.236C33.071 13.2889 33.347 14.7903 33 16.5003M29.1838 12.5346C29.1838 12.5346 29.4417 14.3281 30.1514 15.1739C30.8422 15.9972 33 16.5003 33 16.5003" stroke="#F39324" stroke-width="1.2" stroke-linecap="round"/>
</g>
<g id="Vector_2">
<path d="M34.5155 10.9082C34.5761 10.2874 33.9413 9.84593 33.3664 10.0853C32.5725 10.4158 31.4732 10.8456 30.2738 11.2323C30.2738 11.2323 30.5478 13.1793 31.3018 14.0974C32.0358 14.9912 33.8261 15.6425 33.8261 15.6425C34.1948 13.7861 34.4041 12.0512 34.5155 10.9082Z" fill="#161616"/>
<path d="M12.7041 27.5845C15.9256 28.5117 17.2708 24.7359 17.2151 21.3388C17.188 19.6897 16.9914 17.378 16.7963 15.4357C16.5895 13.3768 16.3842 11.733 16.3842 11.733C16.3842 11.733 8.99621 15.0003 8.30329 19.2618C7.78183 22.4688 9.58708 26.6874 12.7041 27.5845Z" fill="#161616"/>
<path d="M16.3842 11.733C16.3842 11.733 8.99621 15.0003 8.30329 19.2618C7.78183 22.4688 9.58708 26.6874 12.7041 27.5845C15.9256 28.5117 17.2708 24.7359 17.2151 21.3388C17.188 19.6897 16.9914 17.378 16.7963 15.4357C16.5895 13.3768 16.3842 11.733 16.3842 11.733ZM16.3842 11.733L17.8704 11.3071C18.2297 11.2042 18.6093 11.2014 18.9723 11.2901C20.2415 11.6 23.427 12.3077 25.6687 12.2048C27.0885 12.1396 28.7608 11.7202 30.2738 11.2323M41.4796 25.943C42.2841 23.2084 42.3582 21.2045 41.8908 18.0117C41.3509 14.3236 38.1898 9.1532 38.1898 9.1532C31.6609 -0.0861413 19.0395 -2.27041 9.81801 4.27114C3.72473 8.59359 0.704655 15.6455 1.24044 22.5981C1.51552 26.1675 2.72781 29.7107 4.94265 32.845C11.3768 41.9502 23.8705 44.2063 33.0576 38.0091C33.2682 37.8671 33.2916 37.5667 33.1083 37.3908L26.5328 31.079C25.6731 30.2225 25.7303 28.8052 26.6162 27.9759C28.2122 26.4817 30.5374 24.1121 31.7391 21.9741C32.7275 20.2157 33.3889 17.8437 33.8261 15.6425M41.4796 25.943C41.3088 26.5235 41.1006 27.3337 40.8628 27.9759C40.2832 29.5408 39.0694 31.5091 38.3494 32.6121C37.9816 33.1756 37.4683 33.6406 36.8216 33.8268C36.2997 33.977 35.6682 34.0745 35.2084 33.8743C34.3394 33.496 33.895 32.8863 33.7692 31.9173C33.4614 29.5481 36.0312 27.6308 38.2852 26.767C39.6291 26.252 41.4796 25.943 41.4796 25.943ZM30.2738 11.2323C31.4732 10.8456 32.5725 10.4158 33.3664 10.0853C33.9413 9.84593 34.5761 10.2874 34.5155 10.9082C34.4041 12.0512 34.1948 13.7861 33.8261 15.6425M30.2738 11.2323C30.2738 11.2323 30.5478 13.1793 31.3018 14.0974C32.0358 14.9912 33.8261 15.6425 33.8261 15.6425" stroke="#161616" stroke-width="1.2" stroke-linecap="round"/>
</g>
<path id="Vector 83" d="M22.0513 17.8343C22.0513 17.8343 21.9789 16.6836 22.3343 16.4487C22.6898 16.2139 23.7199 16.7317 23.7199 16.7317" stroke="#161616" stroke-width="1.2" stroke-linecap="round"/>
</g>
</svg>
